<svg id="Layer_1" height="512" viewBox="0 0 128 128" width="512" xmlns="http://www.w3.org/2000/svg" data-name="Layer 1"><path d="m61 81.692h6v39.808h-6z" fill="#994c0f"/><path d="m93 93.878-14.5-25.115h11.233l-14.5-25.114h10.215l-21.448-37.149-21.448 37.149h10.215l-14.5 25.114h11.233l-14.5 25.115z" fill="#9ad14b"/><path d="m65.06 113.88c-.293-.1-.593-.2-.9-.276a5.924 5.924 0 0 0 -8.781-3.05c-.226-.186-.451-.376-.692-.544a11.111 11.111 0 0 0 -16.27 4.05h-.01a8.267 8.267 0 0 0 -4.66 7.44h38.373a11.087 11.087 0 0 0 -7.06-7.62z" fill="#84b340"/><path d="m79.69 113.88c-.293-.1-.593-.2-.9-.276a5.924 5.924 0 0 0 -8.781-3.05c-.226-.186-.451-.376-.692-.544a11.111 11.111 0 0 0 -16.27 4.05h-.01a8.267 8.267 0 0 0 -4.66 7.44h38.373a11.087 11.087 0 0 0 -7.06-7.62z" fill="#9ad14b"/><g fill="#120e30"><path d="m121.5 119.75h-33.49a12.778 12.778 0 0 0 -7.74-7.521l-.187-.065a7.671 7.671 0 0 0 -9.888-3.677 12.739 12.739 0 0 0 -1.445-.85v-12.009h24.25a1.75 1.75 0 0 0 1.516-2.628l-5.209-9.02a1.75 1.75 0 0 0 -3.032 1.75l3.694 6.4h-51.938l12.985-22.491a1.75 1.75 0 0 0 -1.516-2.625h-8.2l12.983-22.491a1.75 1.75 0 0 0 -1.516-2.623h-7.184l.578-1a1.75 1.75 0 0 0 -3.031-1.75l-2.093 3.625a1.75 1.75 0 0 0 1.515 2.625h7.184l-12.985 22.489a1.75 1.75 0 0 0 1.516 2.625h8.2l-12.983 22.486a1.75 1.75 0 0 0 1.516 2.628h24.25v11.163a12.732 12.732 0 0 0 -3.413 1.59c-.092.034-.186.064-.276.1a12.865 12.865 0 0 0 -18.424 4.268 10.09 10.09 0 0 0 -4.961 7h-25.676a1.75 1.75 0 0 0 0 3.5h115a1.75 1.75 0 0 0 0-3.5zm-58.75-24.12h2.5v10.834a13.034 13.034 0 0 0 -2.31-.214c-.064 0-.126 0-.19.006zm-23.667 20.049a1.755 1.755 0 0 0 .9-.826 9.307 9.307 0 0 1 12.978-3.844 12.908 12.908 0 0 0 -1.191 1.743 10.089 10.089 0 0 0 -4.961 7h-11.074a6.47 6.47 0 0 1 3.348-4.073zm33.037 4.071h-21.747a6.565 6.565 0 0 1 3.34-4.07 1.752 1.752 0 0 0 .9-.826 9.361 9.361 0 0 1 13.706-3.411c.183.128.353.272.582.461a1.75 1.75 0 0 0 2.055.126 4.173 4.173 0 0 1 6.188 2.152 1.752 1.752 0 0 0 1.212 1.117c.254.065.5.142.75.229h.012a9.3 9.3 0 0 1 5.052 4.217z"/><path d="m47.037 35.881a1.75 1.75 0 0 0 2.39-.641l1.623-2.809a1.75 1.75 0 1 0 -3.031-1.75l-1.619 2.809a1.751 1.751 0 0 0 .637 2.391z"/><path d="m52.4 26.591a1.751 1.751 0 0 0 2.391-.641l9.209-15.95 18.417 31.9h-7.184a1.75 1.75 0 0 0 -1.516 2.625l12.983 22.489h-8.2a1.75 1.75 0 0 0 -1.516 2.625l5.539 9.592a1.75 1.75 0 1 0 3.031-1.75l-4.023-6.967h8.2a1.75 1.75 0 0 0 1.516-2.625l-12.983-22.489h7.184a1.75 1.75 0 0 0 1.515-2.625l-21.447-37.15a1.751 1.751 0 0 0 -3.032 0l-10.724 18.575a1.751 1.751 0 0 0 .64 2.391z"/></g></svg>